:version 1.10
:name ASF
:units
  mass 1
  length 1
  angle deg
:documentation
  ASF file generated by Kaydara
:root
  axis xyz
  order  tx ty tz rx ry rz
  position 0 0 0
  orientation 0 0 0
:bonedata
  begin
    id 1
    name lfemurDummy
    direction 0.61522 -0.761478 0.204097
    length 5.68318
    axis 0 -0 0 xyz
  end
  begin
    id 2
    name lfemur
    direction 0.34202 -0.939693 -5.84747e-008
    length 16.9147
    axis 0 -0 20 xyz
    dof rx ry rz
    limits( -inf , inf )
( -inf , inf )
( -inf , inf )

  end
  begin
    id 3
    name ltibia
    direction 0.34202 -0.939693 1.20839e-009
    length 18.0532
    axis 0 -0 20 xyz
    dof rz ry rx
    limits( -inf , inf )
( -inf , inf )
( -inf , inf )

  end
  begin
    id 4
    name lfoot
    direction 0.0841971 -0.23133 0.969225
    length 5.23822
    axis -90 7.62852e-016 20 xyz
    dof ry rx rz
    limits( -inf , inf )
( -inf , inf )
( -inf , inf )

  end
  begin
    id 5
    name ltoes
    direction 0 0 0
    length 0
    axis 0 0 0 xyz
    dof rz ry rx
    limits( -inf , inf )
( -inf , inf )
( -inf , inf )

  end
  begin
    id 6
    name rfemurDummy
    direction -0.625247 -0.75382 0.202044
    length 5.74091
    axis 0 -0 0 xyz
  end
  begin
    id 7
    name rfemur
    direction -0.34202 -0.939693 -1.47013e-008
    length 16.4922
    axis 0 -0 -20 xyz
    dof rx ry rz
    limits( -inf , inf )
( -inf , inf )
( -inf , inf )

  end
  begin
    id 8
    name rtibia
    direction -0.34202 -0.939693 -7.74345e-010
    length 18.2421
    axis 0 -0 -20 xyz
    dof rz ry rx
    limits( -inf , inf )
( -inf , inf )
( -inf , inf )

  end
  begin
    id 9
    name rfoot
    direction -0.124331 -0.341598 0.931586
    length 5.45787
    axis -90 -7.62852e-016 -20 xyz
    dof ry rx rz
    limits( -inf , inf )
( -inf , inf )
( -inf , inf )

  end
  begin
    id 10
    name rtoes
    direction 0 0 0
    length 0
    axis 0 0 0 xyz
    dof rz ry rx
    limits( -inf , inf )
( -inf , inf )
( -inf , inf )

  end
  begin
    id 11
    name lowerbackDummy
    direction 0 0 0
    length 0
    axis 0 -0 0 xyz
  end
  begin
    id 12
    name lowerback
    direction -0.0218484 0.994884 -0.0986304
    length 4.45607
    axis 0 -0 0 xyz
    dof rx ry rz
    limits( -inf , inf )
( -inf , inf )
( -inf , inf )

  end
  begin
    id 13
    name upperback
    direction -0.00973057 0.999717 -0.0217111
    length 4.47449
    axis 0 -0 0 xyz
    dof rx ry rz
    limits( -inf , inf )
( -inf , inf )
( -inf , inf )

  end
  begin
    id 14
    name thorax
    direction -0.000928171 0.999699 0.0245198
    length 4.50973
    axis 0 -0 0 xyz
    dof rx ry rz
    limits( -inf , inf )
( -inf , inf )
( -inf , inf )

  end
  begin
    id 15
    name rclavicle
    direction -0.9009 0.425937 -0.0834055
    length 7.28587
    axis 0 -0 0 xyz
    dof rx ry rz
    limits( -inf , inf )
( -inf , inf )
( -inf , inf )

  end
  begin
    id 16
    name rhumerus
    direction -1 -2.23604e-007 -1.42637e-007
    length 13.5704
    axis 180 30 90 xyz
    dof rx ry rz
    limits( -inf , inf )
( -inf , inf )
( -inf , inf )

  end
  begin
    id 17
    name rradius
    direction -1 5.68281e-008 -4.4952e-007
    length 8.06782
    axis 180 30 90 xyz
    dof rz ry rx
    limits( -inf , inf )
( -inf , inf )
( -inf , inf )

  end
  begin
    id 18
    name rwrist
    direction -1 1.51393e-007 1.38143e-007
    length 4.03391
    axis -90 -90 0 xyz
    dof rz rx ry
    limits( -inf , inf )
( -inf , inf )
( -inf , inf )

  end
  begin
    id 19
    name rthumb
    direction 0 0 0
    length 0
    axis 0 0 0 xyz
    dof ry rx rz
    limits( -inf , inf )
( -inf , inf )
( -inf , inf )

  end
  begin
    id 20
    name rhand
    direction -1 -3.34077e-007 -5.59631e-007
    length 1.29744
    axis -90 -90 0 xyz
    dof ry rx rz
    limits( -inf , inf )
( -inf , inf )
( -inf , inf )

  end
  begin
    id 21
    name rfingers
    direction 0 0 0
    length 0
    axis 0 0 0 xyz
    dof rz ry rx
    limits( -inf , inf )
( -inf , inf )
( -inf , inf )

  end
  begin
    id 22
    name lclavicle
    direction 0.940017 0.332249 -0.0773232
    length 8.29589
    axis 0 -0 0 xyz
    dof rx ry rz
    limits( -inf , inf )
( -inf , inf )
( -inf , inf )

  end
  begin
    id 23
    name lhumerus
    direction 1 7.41158e-008 -1.44768e-008
    length 12.0042
    axis 180 -30 -90 xyz
    dof rx ry rz
    limits( -inf , inf )
( -inf , inf )
( -inf , inf )

  end
  begin
    id 24
    name lradius
    direction 1 -1.32972e-007 3.10821e-007
    length 8.1902
    axis 180 -30 -90 xyz
    dof rz ry rx
    limits( -inf , inf )
( -inf , inf )
( -inf , inf )

  end
  begin
    id 25
    name lwrist
    direction 1 3.08957e-007 4.01394e-007
    length 4.09509
    axis -90 90 0 xyz
    dof rz rx ry
    limits( -inf , inf )
( -inf , inf )
( -inf , inf )

  end
  begin
    id 26
    name lthumb
    direction 0 0 0
    length 0
    axis 0 0 0 xyz
    dof ry rx rz
    limits( -inf , inf )
( -inf , inf )
( -inf , inf )

  end
  begin
    id 27
    name lhand
    direction 1 -1.64125e-007 -6.99514e-007
    length 1.37229
    axis -90 90 0 xyz
    dof ry rx rz
    limits( -inf , inf )
( -inf , inf )
( -inf , inf )

  end
  begin
    id 28
    name lfingers
    direction 0 0 0
    length 0
    axis 0 0 0 xyz
    dof rz ry rx
    limits( -inf , inf )
( -inf , inf )
( -inf , inf )

  end
  begin
    id 29
    name lowerneck
    direction -0.030798 0.998024 0.0547665
    length 3.93918
    axis 0 -0 0 xyz
    dof rx ry rz
    limits( -inf , inf )
( -inf , inf )
( -inf , inf )

  end
  begin
    id 30
    name upperneck
    direction 0.0531588 0.996611 -0.0627736
    length 3.95491
    axis 0 -0 0 xyz
    dof rx ry rz
    limits( -inf , inf )
( -inf , inf )
( -inf , inf )

  end
  begin
    id 31
    name head
    direction 0 0 0
    length 0
    axis 0 0 0 xyz
    dof rx ry rz
    limits( -inf , inf )
( -inf , inf )
( -inf , inf )

  end
:hierarchy
  begin
    root lfemurDummy rfemurDummy lowerbackDummy
    lfemurDummy lfemur
    lfemur ltibia
    ltibia lfoot
    lfoot ltoes
    rfemurDummy rfemur
    rfemur rtibia
    rtibia rfoot
    rfoot rtoes
    lowerbackDummy lowerback
    lowerback upperback
    upperback thorax
    thorax rclavicle lclavicle lowerneck
    rclavicle rhumerus
    rhumerus rradius
    rradius rwrist
    rwrist rthumb rhand
    rhand rfingers
    lclavicle lhumerus
    lhumerus lradius
    lradius lwrist
    lwrist lthumb lhand
    lhand lfingers
    lowerneck upperneck
    upperneck head
  end

:SAMPLES-PER-SECOND 30
:FULLY-SPECIFIED
:DEGREES
79
root  14.03073288 39.52777893 -6.634911214 -139.3850098 -82.98000336 141.6329956
lowerback  9.142569542 3.134710073 -1.188789964
upperback  2.921309948 3.908879995 -1.560279965
thorax  -2.055779934 1.906039953 -1.361940026
lowerneck  -3.623470068 4.773799896 -2.809659958
upperneck  7.039539814 6.53553009 -0.05264350027
head  2.771300077 3.154269934 0.6863920093
lclavicle  0 -9.442270133e-015 7.951389973e-016
lhumerus  11.57970047 -7.517479897 73.17669678
lradius  2.884267934e-031 -2.037116228e-031 144.7669983
lwrist  0 -0 8.056280136
lhand  -1.496451383e-031 -27.76390076 20.11240005
lfingers  90 7.125020027 -90
lthumb  89.89689403 5.08795885 91.16245106
rclavicle  0 -9.442270133e-015 7.951389973e-016
rhumerus  23.99220085 19.45289993 -76.97029877
rradius  -2.592984599e-031 2.396930309e-031 137.25
rwrist  7.062250077e-031 1.765562519e-031 -11.55599976
rhand  -7.920061211e-032 -33.2840004 9.303460121
rfingers  -90 -7.125020027 -90
rthumb  -92.93752616 -24.25625642 -97.11982154
rfemur  -12.07859993 10.74730015 3.40170002
rtibia  -0 0 57.26720047
rfoot  -0 -12.95610046 -9.394940376
rtoes  5.373923086 19.29304026 -105.8922705
lfemur  -16.80979919 6.140570164 -16.9939003
ltibia  -0 0 53.11330032
lfoot  4.9315498e-032 -18.01530075 -0.1425630003
ltoes  -4.250644065 -19.5611806 -102.515957
80
root  13.90626712 39.69999899 -6.474111212 -143.2489929 -82.44519806 145.2810059
lowerback  9.14688015 3.10593009 -1.115350008
upperback  2.747649908 3.895030022 -1.190909982
thorax  -2.259229898 1.9023 -1.02778995
lowerneck  -2.891680002 5.046219826 -3.353590012
upperneck  7.468309879 6.902279854 -0.1341519952
head  2.758790016 3.307970047 0.7466189861
lclavicle  0 -9.442270133e-015 7.951389973e-016
lhumerus  11.50979996 -5.630459785 72.5114975
lradius  2.912777722e-031 -1.996138767e-031 145.5769958
lwrist  -7.062250077e-031 -1.765562519e-031 9.21560955
lhand  -1.496451383e-031 -27.76390076 20.11240005
lfingers  90 7.125020027 -90
lthumb  89.89689403 5.08795885 91.16245106
rclavicle  0 -9.442270133e-015 7.951389973e-016
rhumerus  24.98380089 19.87039948 -76.42620087
rradius  -2.609281585e-031 2.379179196e-031 137.6410065
rwrist  1.412450015e-030 -0 -12.67339993
rhand  -7.920061211e-032 -33.2840004 9.303460121
rfingers  -90 -7.125020027 -90
rthumb  -92.93752616 -24.25625642 -97.11982154
rfemur  -13.13409996 10.57979965 3.51225996
rtibia  -0 0 58.07310104
rfoot  -0 -12.5571003 -9.65266037
rtoes  5.373923086 19.29304026 -105.8922705
lfemur  -16.8355999 6.826439857 -16.75009918
ltibia  -0 0 53.75320053
lfoot  4.57890258e-032 -15.42790031 -1.416300058
ltoes  -4.250644065 -19.5611806 -102.515957
81
root  13.77413292 39.85977774 -6.331444538 -146.0780029 -81.93139648 147.6929932
lowerback  9.265660286 3.088269949 -1.255699992
upperback  2.690589905 3.872189999 -0.7687810063
thorax  -2.422709942 1.892070055 -0.5218930244
lowerneck  -2.231080055 5.258359909 -4.028560162
upperneck  7.788229942 7.186480045 -0.2048420012
head  2.718509912 3.417459965 0.8274620175
lclavicle  0 -9.442270133e-015 7.951389973e-016
lhumerus  11.32759953 -4.588990211 72.30919647
lradius  2.933521356e-031 -1.965527026e-031 146.177002
lwrist  -7.062250077e-031 -1.765562519e-031 9.589189529
lhand  -1.496451383e-031 -27.76390076 20.11240005
lfingers  90 7.125020027 -90
lthumb  89.89689403 5.08795885 91.16245106
rclavicle  0 -9.442270133e-015 7.951389973e-016
rhumerus  25.80270004 20.39839935 -75.8655014
rradius  -2.627598486e-031 2.358934131e-031 138.0839996
rwrist  1.412450015e-030 -1.765562519e-031 -13.65540028
rhand  -7.920061211e-032 -33.2840004 9.303460121
rfingers  -90 -7.125020027 -90
rthumb  -92.93752616 -24.25625642 -97.11982154
rfemur  -13.77729988 10.78439999 3.666019917
rtibia  -0 0 58.58959961
rfoot  -0 -13.0607996 -9.533590317
rtoes  5.373923086 19.29304026 -105.8922705
lfemur  -16.73189926 7.385439873 -16.42620087
ltibia  -0 0 54.46920013
lfoot  6.781923115e-032 -12.51189995 -3.065160036
ltoes  -4.250644065 -19.5611806 -102.515957
82
root  13.61682171 40.01666692 -6.179333484 -148.4549866 -81.47280121 149.3959961
lowerback  9.581999779 3.086829901 -1.217779994
upperback  2.724930048 3.874720097 -0.4804190099
thorax  -2.57901001 1.891800046 -0.2632670105
lowerneck  -1.529309988 5.403409958 -4.392119884
upperneck  7.986289978 7.358459949 -0.3352249861
head  2.644870043 3.480550051 0.8288990259
lclavicle  0 -9.442270133e-015 7.951389973e-016
lhumerus  11.06649971 -4.524849892 72.36039734
lradius  2.950426538e-031 -1.940058577e-031 146.6730042
lwrist  -7.062250077e-031 -0 9.411600113
lhand  -1.496451383e-031 -27.76390076 20.11240005
lfingers  90 7.125020027 -90
lthumb  89.89689403 5.08795885 91.16245106
rclavicle  0 -9.442270133e-015 7.951389973e-016
rhumerus  26.44339943 20.75740051 -75.36930084
rradius  -2.640322926e-031 2.344683109e-031 138.3939972
rwrist  7.062250077e-031 -0 -14.10700035
rhand  -7.920061211e-032 -33.2840004 9.303460121
rfingers  -90 -7.125020027 -90
rthumb  -92.93752616 -24.25625642 -97.11982154
rfemur  -13.89439964 11.31229973 3.798799992
rtibia  -0 0 58.80939865
rfoot  -0 -13.91749954 -8.842300415
rtoes  5.373923086 19.29304026 -105.8922705
lfemur  -16.39730072 7.719580173 -16.03240013
ltibia  -0 0 55.20159912
lfoot  4.473539274e-032 -9.365670204 -4.807020187
ltoes  -4.250644065 -19.5611806 -102.515957
83
root  13.4573118 40.14866746 -6.018822212 -149.6960144 -81.2276001 149.9719849
lowerback  9.964449883 3.009550095 -1.090729952
upperback  2.720679998 3.782459974 -0.2801490128
thorax  -2.798799992 1.844390035 -0.1379359961
lowerneck  -0.8878970146 5.528289795 -4.469260216
upperneck  8.251759529 7.499300003 -0.5681390166
head  2.620490074 3.530859947 0.7531369925
lclavicle  0 -9.442270133e-015 7.951389973e-016
lhumerus  10.72659969 -4.473020077 72.31150055
lradius  2.96359686e-031 -1.919879602e-031 147.0639954
lwrist  -7.062250077e-031 -1.765562519e-031 9.057649612
lhand  -1.496451383e-031 -27.76390076 20.11240005
lfingers  90 7.125020027 -90
lthumb  89.89689403 5.08795885 91.16245106
rclavicle  0 -9.442270133e-015 7.951389973e-016
rhumerus  26.85899925 21.18169975 -74.93910217
rradius  -2.648206306e-031 2.335775545e-031 138.5870056
rwrist  7.062250077e-031 -1.765562519e-031 -14.10379982
rhand  -7.920061211e-032 -33.2840004 9.303460121
rfingers  -90 -7.125020027 -90
rthumb  -92.93752616 -24.25625642 -97.11982154
rfemur  -13.94960022 11.04279995 4.098780155
rtibia  -0 0 58.72689819
rfoot  -0 -13.28740025 -9.202150345
rtoes  5.373923086 19.29304026 -105.8922705
lfemur  -16.21910095 7.707270145 -15.66329956
ltibia  -0 0 55.94260025
lfoot  4.438445952e-032 -6.027770042 -6.316679955
ltoes  -4.250644065 -19.5611806 -102.515957
84
root  13.30124412 40.25933273 -5.878377899 -147.9530029 -81.1344986 147.7860107
lowerback  10.08819962 2.856250048 -1.342020035
upperback  2.695379972 3.555929899 -0.1639499962
thorax  -2.914040089 1.733060002 0.1428360045
lowerneck  -0.520796001 5.607769966 -4.455770016
upperneck  8.631640434 7.597609997 -0.829982996
head  2.690809965 3.557719946 0.6653689742
lclavicle  0 -9.442270133e-015 7.951389973e-016
lhumerus  10.39890003 -4.507589817 72.29119873
lradius  2.974472644e-031 -1.902986213e-031 147.3899994
lwrist  0 -0 8.566659927
lhand  -1.496451383e-031 -27.76390076 20.11240005
lfingers  90 7.125020027 -90
lthumb  89.89689403 5.08795885 91.16245106
rclavicle  0 -9.442270133e-015 7.951389973e-016
rhumerus  27.19589996 21.52779961 -74.45459747
rradius  -2.656830365e-031 2.325961403e-031 138.798996
rwrist  7.062250077e-031 -0 -13.92479992
rhand  -7.920061211e-032 -33.2840004 9.303460121
rfingers  -90 -7.125020027 -90
rthumb  -92.93752616 -24.25625642 -97.11982154
rfemur  -14.02070045 10.84500027 3.983730078
rtibia  -0 0 58.41680145
rfoot  -0 -13.31099987 -8.623860359
rtoes  5.373923086 19.29304026 -105.8922705
lfemur  -16.43330002 7.305870056 -15.68270016
ltibia  -0 0 56.68939972
lfoot  -0 -2.826590061 -7.475729942
ltoes  -4.250644065 -19.5611806 -102.515957
85
root  13.13582293 40.35088847 -5.759466727 -146.4159851 -81.06819916 145.8070068
lowerback  10.14089966 2.716160059 -1.689769983
upperback  2.718879938 3.338129997 -0.01891059987
thorax  -2.943890095 1.62598002 0.5124419928
lowerneck  -0.3596979976 5.683110237 -4.424950123
upperneck  9.116950035 7.700139999 -1.003810048
head  2.832319975 3.586030006 0.6125810146
lclavicle  0 -9.442270133e-015 7.951389973e-016
lhumerus  9.939559937 -5.054090023 72.5223999
lradius  2.987553864e-031 -1.88238305e-031 147.7859955
lwrist  -7.062250077e-031 -1.765562519e-031 7.942649841
lhand  -1.496451383e-031 -27.76390076 20.11240005
lfingers  90 7.125020027 -90
lthumb  89.89689403 5.08795885 91.16245106
rclavicle  0 -9.442270133e-015 7.951389973e-016
rhumerus  27.43490028 21.72750092 -73.97290039
rradius  -2.66711544e-031 2.314160597e-031 139.0529938
rwrist  1.412450015e-030 -1.765562519e-031 -13.65909958
rhand  -7.920061211e-032 -33.2840004 9.303460121
rfingers  -90 -7.125020027 -90
rthumb  -92.93752616 -24.25625642 -97.11982154
rfemur  -14.02840042 10.98029995 4.019090176
rtibia  -0 0 57.87319946
rfoot  -0 -13.62800026 -7.59401989
rtoes  5.373923086 19.29304026 -105.8922705
lfemur  -16.65550041 6.878280163 -15.62440014
ltibia  -0 0 57.46519852
lfoot  -0 -0.2079329938 -8.710479736
ltoes  -4.250644065 -19.5611806 -102.515957
